<svg xmlns="http://www.w3.org/2000/svg" version="1.1" xmlns:xlink="http://www.w3.org/1999/xlink" xmlns:svgjs="http://svgjs.com/svgjs" width="1440" height="560" preserveAspectRatio="none" viewBox="0 0 1440 560"><g mask="url(&quot;#SvgjsMask1003&quot;)" fill="none"><rect width="1440" height="560" x="0" y="0" fill="rgba(156, 163, 175, 1)"></rect><path d="M325.5688631482258 476.15267528713844L388.08542442771756 321.4187563434741 170.83494420456142 413.63611400764665z" fill="rgba(107, 114, 128, 0.4)" class="triangle-float2"></path><path d="M1029.6390183497965 186.8113117473854L1055.0699133691207 347.3756636951848 1215.63426531692 321.9447686758607 1190.203370297596 161.38041672806128z" fill="rgba(107, 114, 128, 0.4)" class="triangle-float2"></path><path d="M872.661,533.168C901.092,531.628,926.672,517.725,941.869,493.647C958.281,467.643,967.435,434.472,951.581,408.124C936.062,382.332,902.752,379.394,872.661,378.625C840.566,377.804,804.434,377.323,786.426,403.902C766.777,432.903,769.686,472.775,789.127,501.917C806.81,528.424,840.844,534.891,872.661,533.168" fill="rgba(107, 114, 128, 0.4)" class="triangle-float2"></path><path d="M583.999,226.619C619.999,224.268,650.838,204.23,669.97,173.644C690.548,140.747,703.039,100.074,684.465,66.005C665.27,30.798,624.092,15.214,583.999,15.956C545.267,16.672,510.5,36.88,489.771,69.606C467.309,105.068,454.496,150.312,476.097,186.306C497.273,221.592,542.934,229.301,583.999,226.619" fill="rgba(107, 114, 128, 0.4)" class="triangle-float2"></path><path d="M987.2392013963336 434.4700624895598L948.2037334466346 602.8191053322003 1093.419474276732 561.1791617096228z" fill="rgba(107, 114, 128, 0.4)" class="triangle-float3"></path><path d="M688.9421721662859 209.310319378643L742.6748156719999 385.66281024344136 854.6237100332409 269.73633653703797z" fill="rgba(107, 114, 128, 0.4)" class="triangle-float2"></path></g><defs><mask id="SvgjsMask1003"><rect width="1440" height="560" fill="#ffffff"></rect></mask><style>
            @keyframes float1 {
                0%{transform: translate(0, 0)}
                50%{transform: translate(-10px, 0)}
                100%{transform: translate(0, 0)}
            }

            .triangle-float1 {
                animation: float1 5s infinite;
            }

            @keyframes float2 {
                0%{transform: translate(0, 0)}
                50%{transform: translate(-5px, -5px)}
                100%{transform: translate(0, 0)}
            }

            .triangle-float2 {
                animation: float2 4s infinite;
            }

            @keyframes float3 {
                0%{transform: translate(0, 0)}
                50%{transform: translate(0, -10px)}
                100%{transform: translate(0, 0)}
            }

            .triangle-float3 {
                animation: float3 6s infinite;
            }
        </style></defs></svg>