<svg xmlns="http://www.w3.org/2000/svg" version="1.1" xmlns:xlink="http://www.w3.org/1999/xlink" xmlns:svgjs="http://svgjs.com/svgjs" width="1440" height="560" preserveAspectRatio="none" viewBox="0 0 1440 560"><g mask="url(&quot;#SvgjsMask1027&quot;)" fill="none"><path d="M719.73 23.85 a167.92 167.92 0 1 0 335.84 0 a167.92 167.92 0 1 0 -335.84 0z" fill="rgba(250, 204, 21, 0.5)" class="triangle-float2"></path><path d="M97.74 188.41 a126.96 126.96 0 1 0 253.92 0 a126.96 126.96 0 1 0 -253.92 0z" fill="rgba(250, 204, 21, 0.5)" class="triangle-float2"></path><path d="M538 355.83 a160.15 160.15 0 1 0 320.3 0 a160.15 160.15 0 1 0 -320.3 0z" fill="rgba(250, 204, 21, 0.5)" class="triangle-float3"></path><path d="M546.12 112.38 a104.75 104.75 0 1 0 209.5 0 a104.75 104.75 0 1 0 -209.5 0z" fill="rgba(250, 204, 21, 0.5)" class="triangle-float1"></path><path d="M1096.81 39.48 a170.83 170.83 0 1 0 341.66 0 a170.83 170.83 0 1 0 -341.66 0z" fill="rgba(250, 204, 21, 0.5)" class="triangle-float3"></path><path d="M226 189.26 a155.06 155.06 0 1 0 310.12 0 a155.06 155.06 0 1 0 -310.12 0z" fill="rgba(250, 204, 21, 0.5)" class="triangle-float2"></path><path d="M503.33 127.42 a136.93 136.93 0 1 0 273.86 0 a136.93 136.93 0 1 0 -273.86 0z" fill="rgba(250, 204, 21, 0.5)" class="triangle-float3"></path><path d="M1189.71 116.85 a165.68 165.68 0 1 0 331.36 0 a165.68 165.68 0 1 0 -331.36 0z" fill="rgba(250, 204, 21, 0.5)" class="triangle-float2"></path><path d="M1046.91 514.35 a142.53 142.53 0 1 0 285.06 0 a142.53 142.53 0 1 0 -285.06 0z" fill="rgba(250, 204, 21, 0.5)" class="triangle-float1"></path><path d="M10.91 478.93 a166.5 166.5 0 1 0 333 0 a166.5 166.5 0 1 0 -333 0z" fill="rgba(250, 204, 21, 0.5)" class="triangle-float1"></path><path d="M250.14 535.26 a160.04 160.04 0 1 0 320.08 0 a160.04 160.04 0 1 0 -320.08 0z" fill="rgba(250, 204, 21, 0.5)" class="triangle-float3"></path><path d="M100.18 436.42 a126.02 126.02 0 1 0 252.04 0 a126.02 126.02 0 1 0 -252.04 0z" fill="rgba(250, 204, 21, 0.5)" class="triangle-float1"></path></g><defs><mask id="SvgjsMask1027"><rect width="1440" height="560" fill="#ffffff"></rect></mask><style>
            @keyframes float1 {
                0%{transform: translate(0, 0)}
                50%{transform: translate(-10px, 0)}
                100%{transform: translate(0, 0)}
            }

            .triangle-float1 {
                animation: float1 5s infinite;
            }

            @keyframes float2 {
                0%{transform: translate(0, 0)}
                50%{transform: translate(-5px, -5px)}
                100%{transform: translate(0, 0)}
            }

            .triangle-float2 {
                animation: float2 4s infinite;
            }

            @keyframes float3 {
                0%{transform: translate(0, 0)}
                50%{transform: translate(0, -10px)}
                100%{transform: translate(0, 0)}
            }

            .triangle-float3 {
                animation: float3 6s infinite;
            }
        </style></defs></svg>